<svg width="617" height="88" viewBox="0 0 617 88" fill="none" xmlns="http://www.w3.org/2000/svg">
<path d="M7.16 68.8533C13.0267 65.44 13.6667 58.5067 13.6667 49.6533C13.6667 49.5467 13.6667 49.44 13.6667 49.44C12.8133 49.44 11.8533 49.44 11 49.44C6.73333 49.44 4.6 51.7867 4.92 55.52H2.89333C1.82667 53.6 1.29333 51.4667 1.29333 49.3333C1.29333 41.0133 6.94667 38.4533 13.6667 37.3867C13.6667 36.5333 13.6667 35.68 13.6667 34.8267C13.6667 28.5333 16.44 26.08 20.28 23.6267L28.7067 18.08H13.88C5.24 18.08 5.24 7.62666 7.16 0.266663L9.50667 0.373329C10.1467 3.78667 13.1333 5.06667 17.2933 5.06667H46.4133C68.8133 5.06667 76.7067 20.2133 76.7067 40.5867C76.7067 51.68 73.6133 62.3467 69.6667 70.3467L43 85.0667C37.6667 81.2267 31.3733 79.0933 24.5467 79.0933C16.76 79.0933 8.97333 82.1867 3.21333 87.4133H0.226667C4.6 78.9867 12.1733 71.84 22.4133 68.96C26.5733 64.9067 31.16 60.96 31.16 52.96V33.76C31.16 27.04 32.44 21.8133 35.8533 18.08H32.5467C29.3467 21.0667 27.4267 24.0533 27.4267 29.92V38.24V49.12C27.4267 62.3467 18.04 68.96 8.12 71.4133L7.16 68.8533ZM42.7867 68.64C47.6933 69.92 52.28 72.16 56.2267 75.1467C59.8533 66.2933 62.2 56.48 62.2 44.8533L42.7867 54.7733C42.7867 59.36 42.7867 64.0533 42.7867 68.64ZM42.7867 18.1867C42.7867 25.3333 42.7867 32.48 42.7867 39.7333L60.3867 30.7733C58.5733 25.2267 55.2667 20.96 49.9333 19.1467C47.6933 18.2933 45.24 18.1867 42.7867 18.1867ZM39.8 68C39.8 51.5733 39.8 35.1467 39.8 18.72C35.4267 21.8133 34.1467 26.6133 34.1467 33.8667V53.0667C34.1467 59.7867 31.16 64.16 27.7467 67.7867C29.4533 67.5733 31.2667 67.4667 33.08 67.4667C35.32 67.4667 37.56 67.68 39.8 68ZM42.7867 43.1467C42.7867 45.8133 42.7867 48.5867 42.7867 51.36L62.2 41.5467C61.9867 38.7733 61.7733 36.2133 61.24 33.8667L42.7867 43.1467ZM113.027 70.6667L115.053 73.0133L99.0533 84.5333L87.32 75.36L83.8 77.92L82.2 75.8933L88.92 71.3067V43.1467L85.2933 38.56L81.24 41.12L79.7467 39.0933L94.04 29.3867L101.827 37.8133L109.293 29.28H110.36C111.427 30.88 113.24 31.9467 115.16 31.9467C117.4 31.9467 119.107 30.7733 119.96 29.28H123.16C121.987 42.5067 115.8 44.2133 112.6 44.2133C110.253 44.2133 106.52 43.1467 103 39.84V71.3067L107.267 74.6133L113.027 70.6667ZM142.8 67.68L155.067 75.8933V45.1733L142.8 37.0667V67.68ZM125.413 76.8533L123.6 74.5067L129.04 70.1333C129.04 60.96 129.04 51.7867 129.04 42.6133L153.04 28.8533L168.4 40.5867V69.7067L144.827 84.1067L129.893 73.2267L125.413 76.8533ZM193.175 67.68L205.442 75.8933V45.1733L193.175 37.0667V67.68ZM175.788 76.8533L173.975 74.5067L179.415 70.1333C179.415 60.96 179.415 51.7867 179.415 42.6133L203.415 28.8533L218.775 40.5867V69.7067L195.202 84.1067L180.268 73.2267L175.788 76.8533ZM276.617 76.1067L264.883 85.6L254.323 76.4267L258.803 72.2667V46.0267L251.443 39.3067L246.75 42.08V72.2667L251.337 76.4267L241.097 85.6L228.83 75.8933L232.99 72.2667V44L228.83 39.4133L224.777 41.9733L223.283 39.84L238.11 29.7067L245.897 38.4533L259.87 29.7067L270.537 38.7733L285.15 29.7067L296.243 39.2L299.763 36.4267L301.683 38.6667L296.35 43.04V69.8133L301.363 74.8267L305.95 71.4133V75.36L290.163 85.6L279.603 76.4267L284.083 72.2667V46.0267L276.723 39.3067L271.07 42.72V71.2L276.617 76.1067ZM318.16 68.8533C324.027 65.44 324.667 58.5067 324.667 49.6533C324.667 49.5467 324.667 49.44 324.667 49.44C323.813 49.44 322.853 49.44 322 49.44C317.733 49.44 315.6 51.7867 315.92 55.52H313.893C312.827 53.6 312.293 51.4667 312.293 49.3333C312.293 41.0133 317.947 38.4533 324.667 37.3867C324.667 36.5333 324.667 35.68 324.667 34.8267C324.667 28.5333 327.44 26.08 331.28 23.6267L339.707 18.08H324.88C316.24 18.08 316.24 7.62666 318.16 0.266663L320.507 0.373329C321.147 3.78667 324.133 5.06667 328.293 5.06667H357.413C379.813 5.06667 387.707 20.2133 387.707 40.5867C387.707 51.68 384.613 62.3467 380.667 70.3467L354 85.0667C348.667 81.2267 342.373 79.0933 335.547 79.0933C327.76 79.0933 319.973 82.1867 314.213 87.4133H311.227C315.6 78.9867 323.173 71.84 333.413 68.96C337.573 64.9067 342.16 60.96 342.16 52.96V33.76C342.16 27.04 343.44 21.8133 346.853 18.08H343.547C340.347 21.0667 338.427 24.0533 338.427 29.92V38.24V49.12C338.427 62.3467 329.04 68.96 319.12 71.4133L318.16 68.8533ZM353.787 68.64C358.693 69.92 363.28 72.16 367.227 75.1467C370.853 66.2933 373.2 56.48 373.2 44.8533L353.787 54.7733C353.787 59.36 353.787 64.0533 353.787 68.64ZM353.787 18.1867C353.787 25.3333 353.787 32.48 353.787 39.7333L371.387 30.7733C369.573 25.2267 366.267 20.96 360.933 19.1467C358.693 18.2933 356.24 18.1867 353.787 18.1867ZM350.8 68C350.8 51.5733 350.8 35.1467 350.8 18.72C346.427 21.8133 345.147 26.6133 345.147 33.8667V53.0667C345.147 59.7867 342.16 64.16 338.747 67.7867C340.453 67.5733 342.267 67.4667 344.08 67.4667C346.32 67.4667 348.56 67.68 350.8 68ZM353.787 43.1467C353.787 45.8133 353.787 48.5867 353.787 51.36L373.2 41.5467C372.987 38.7733 372.773 36.2133 372.24 33.8667L353.787 43.1467ZM424.027 70.6667L426.053 73.0133L410.053 84.5333L398.32 75.36L394.8 77.92L393.2 75.8933L399.92 71.3067V43.1467L396.293 38.56L392.24 41.12L390.747 39.0933L405.04 29.3867L412.827 37.8133L420.293 29.28H421.36C422.427 30.88 424.24 31.9467 426.16 31.9467C428.4 31.9467 430.107 30.7733 430.96 29.28H434.16C432.987 42.5067 426.8 44.2133 423.6 44.2133C421.253 44.2133 417.52 43.1467 414 39.84V71.3067L418.267 74.6133L424.027 70.6667ZM453.8 67.68L466.067 75.8933V45.1733L453.8 37.0667V67.68ZM436.413 76.8533L434.6 74.5067L440.04 70.1333C440.04 60.96 440.04 51.7867 440.04 42.6133L464.04 28.8533L479.4 40.5867V69.7067L455.827 84.1067L440.893 73.2267L436.413 76.8533ZM504.175 67.68L516.442 75.8933V45.1733L504.175 37.0667V67.68ZM486.788 76.8533L484.975 74.5067L490.415 70.1333C490.415 60.96 490.415 51.7867 490.415 42.6133L514.415 28.8533L529.775 40.5867V69.7067L506.202 84.1067L491.268 73.2267L486.788 76.8533ZM587.617 76.1067L575.883 85.6L565.323 76.4267L569.803 72.2667V46.0267L562.443 39.3067L557.75 42.08V72.2667L562.337 76.4267L552.097 85.6L539.83 75.8933L543.99 72.2667V44L539.83 39.4133L535.777 41.9733L534.283 39.84L549.11 29.7067L556.897 38.4533L570.87 29.7067L581.537 38.7733L596.15 29.7067L607.243 39.2L610.763 36.4267L612.683 38.6667L607.35 43.04V69.8133L612.363 74.8267L616.95 71.4133V75.36L601.163 85.6L590.603 76.4267L595.083 72.2667V46.0267L587.723 39.3067L582.07 42.72V71.2L587.617 76.1067Z" fill="white"/>
</svg>
